<svg t="1600789072651" viewBox="0 0 1024 1024" version="1.1" xmlns="http://www.w3.org/2000/svg" p-id="893" width="100%" height="100%" fill="currentColor"><path d="M512 0C229.23008 0 0 229.23008 0 512s229.23008 512 512 512 512-229.23008 512-512S794.76992 0 512 0z m0 55.749973c251.979947 0 456.250027 204.27008 456.250027 456.250027S763.979947 968.250027 512 968.250027 55.749973 763.979947 55.749973 512 260.020053 55.749973 512 55.749973zM285.56288 189.375147c-12.99456 37.768533-17.499307 78.76096-5.8752 114.56256-14.043307 15.58528-24.9472 33.48736-32.75008 53.74976-20.796587 65.728853-15.716693 149.696 29.812907 200.500053 15.994027 17.534293 37.69344 31.949653 65.000106 43.250347 27.305813 11.298987 62.401707 18.507093 105.312427 21.626026-28.800853 13.45792-49.10336 21.679787-56.188587 51.436374-32.124587 21.466453-71.19104 16.343893-99.500373-6.999894-22.37184-16.33536-32.50688-45.366613-57.312427-56.124586-1.559893-1.558187-6.43328-2.720427-14.62528-3.501227-8.192-0.779093-14.631253 1.545387-19.31264 6.999893-2.340693 2.33728-2.16832 4.834987 0.562347 7.56224 18.778453 15.272107 36.852907 31.45984 47.437653 50.87488 10.14272 21.04064 20.640427 36.44672 31.56224 46.18752 30.299307 20.474027 70.934187 31.126187 106.50112 18.1248-4.1472 25.027413 7.041707 64.110933-1.188693 86.49984-3.121493 6.234453-7.586133 11.6992-13.43744 16.37376-5.21472 5.087573-21.384533 11.451733-18.1248 19.2512 1.559893 3.505493 7.013547 5.658453 16.374613 6.437547 20.608853-0.525653 41.124693-8.859307 53.249707-25.124693 4.29056-5.845333 6.437547-13.46048 6.437547-22.81216V722.437973c0-10.909867 2.318507-18.699093 6.999893-23.376213 4.67968-4.675413 9.788587-7.816533 15.249067-9.373867v126.24896c0 10.909867-0.9856 20.269227-2.93632 28.06272-1.95072 7.794347-3.689813 13.257387-5.249707 16.374614-3.58144 6.006613-10.428587 11.549867-10.56256 18.687146 0 2.336427 1.3952 3.6736 4.125013 4.06272 20.49792-0.889173 44.278613-12.913493 52.625067-29.81376 6.631253-14.027093 9.93792-28.788053 9.93792-44.37504V684.99968h25.750187v123.936427c0 15.586987 3.54048 30.347093 10.56256 44.37504s18.740907 23.041707 35.124906 26.937173c8.581973 2.338133 14.378667 3.264853 17.50016 2.87488 3.12064-0.389973 4.514987-1.724587 4.125014-4.06272-1.87904-7.081813-5.794987-13.138773-9.93792-18.687147-5.461333-7.013547-8.188587-21.837653-8.188587-44.437333V689.688747c5.461333 1.557333 10.74176 4.699307 15.812267 9.373866 5.070507 4.675413 7.56224 12.46464 7.56224 23.376214v95.811413c0 9.35168 2.146133 16.968533 6.437546 22.81216 13.041493 16.58624 32.694613 25.000107 53.248854 25.124693 9.363627-0.779093 14.81472-2.932053 16.374613-6.437546 1.559893-3.506347 0.401067-6.413653-3.500373-8.750934s-8.77312-5.823147-14.626134-10.500266c-5.851307-4.675413-10.3168-10.141013-13.43744-16.37376-3.50208-40.19968-0.088747-83.29216-2.93632-123.93728-5.622613-44.355413-22.696107-58.947413-56.75008-75.93728 40.570027-3.117227 73.926827-10.560853 100.06272-22.249814 78.129493-37.95968 99.733333-96.646827 100.06272-175.31136-1.232213-50.628267-15.8464-94.793387-49.18784-128.62464 4.67968-17.923413 6.075733-36.57984 4.125014-56.062293-1.95072-19.482453-6.071467-37.038933-12.3136-52.625067-28.863147 1.558187-53.055147 7.368533-72.561494 17.50016-19.50464 10.131627-33.544533 18.73664-42.1248 25.750187-69.133653-15.69536-143.140693-15.789227-209.43872 2.312533-33.918293-27.74784-75.962027-43.205973-115.869013-45.564586z" p-id="894"></path></svg>